<mxfile host="app.diagrams.net" modified="2024-03-27T23:47:47.064Z" agent="Mozilla/5.0 (Windows NT 10.0; Win64; x64) AppleWebKit/537.36 (KHTML, like Gecko) Chrome/123.0.0.0 Safari/537.36" etag="cdQj8eKdtKgWcubtAmyT" version="24.2.0" type="device">
  <diagram name="PÃ¡gina-1" id="WjwHWbNiyX6BlE-Aln5T">
    <mxGraphModel dx="440" dy="438" grid="1" gridSize="10" guides="1" tooltips="1" connect="1" arrows="1" fold="1" page="1" pageScale="1" pageWidth="827" pageHeight="1169" math="0" shadow="0">
      <root>
        <mxCell id="0" />
        <mxCell id="1" parent="0" />
        <mxCell id="vH6mKPwSYMzQLTSOM2UL-5" value="&lt;p style=&quot;margin:0px;margin-top:4px;text-align:center;&quot;&gt;&lt;b&gt;Alternaiva&lt;/b&gt;&lt;/p&gt;&lt;hr size=&quot;1&quot; style=&quot;border-style:solid;&quot;&gt;&lt;p style=&quot;margin:0px;margin-left:4px;&quot;&gt;+contenido: str&lt;/p&gt;&lt;p style=&quot;margin:0px;margin-left:4px;&quot;&gt;+ayuda: str&lt;/p&gt;&lt;hr size=&quot;1&quot; style=&quot;border-style:solid;&quot;&gt;&lt;p style=&quot;margin:0px;margin-left:4px;&quot;&gt;+mostrar_alternativa():&lt;/p&gt;" style="verticalAlign=top;align=left;overflow=fill;html=1;whiteSpace=wrap;" vertex="1" parent="1">
          <mxGeometry x="50" y="380" width="160" height="90" as="geometry" />
        </mxCell>
        <mxCell id="vH6mKPwSYMzQLTSOM2UL-6" value="&lt;p style=&quot;margin:0px;margin-top:4px;text-align:center;&quot;&gt;&lt;b&gt;Pregunta&lt;/b&gt;&lt;/p&gt;&lt;hr size=&quot;1&quot; style=&quot;border-style:solid;&quot;&gt;&lt;p style=&quot;margin:0px;margin-left:4px;&quot;&gt;+enunciado: str&lt;/p&gt;&lt;p style=&quot;margin:0px;margin-left:4px;&quot;&gt;+ayuda: str&lt;/p&gt;&lt;p style=&quot;margin:0px;margin-left:4px;&quot;&gt;+requeridos: bool&lt;/p&gt;&lt;hr size=&quot;1&quot; style=&quot;border-style:solid;&quot;&gt;&lt;p style=&quot;margin:0px;margin-left:4px;&quot;&gt;+mostrar_pregunta():&lt;/p&gt;" style="verticalAlign=top;align=left;overflow=fill;html=1;whiteSpace=wrap;" vertex="1" parent="1">
          <mxGeometry x="370" y="380" width="170" height="110" as="geometry" />
        </mxCell>
        <mxCell id="vH6mKPwSYMzQLTSOM2UL-9" value="-Alternativas" style="text;html=1;align=center;verticalAlign=middle;resizable=0;points=[];autosize=1;strokeColor=none;fillColor=none;" vertex="1" parent="1">
          <mxGeometry x="235" y="428" width="90" height="30" as="geometry" />
        </mxCell>
        <mxCell id="vH6mKPwSYMzQLTSOM2UL-10" value="&lt;p style=&quot;margin:0px;margin-top:4px;text-align:center;&quot;&gt;&lt;b&gt;Encuesta&lt;/b&gt;&lt;/p&gt;&lt;hr size=&quot;1&quot; style=&quot;border-style:solid;&quot;&gt;&lt;p style=&quot;margin:0px;margin-left:4px;&quot;&gt;+nombre: str&lt;/p&gt;&lt;hr size=&quot;1&quot; style=&quot;border-style:solid;&quot;&gt;&lt;p style=&quot;margin:0px;margin-left:4px;&quot;&gt;+mostrar_encuesta():&amp;nbsp;&lt;/p&gt;&lt;p style=&quot;margin:0px;margin-left:4px;&quot;&gt;+agregar_listado_respuesta():&lt;/p&gt;" style="verticalAlign=top;align=left;overflow=fill;html=1;whiteSpace=wrap;" vertex="1" parent="1">
          <mxGeometry x="370" y="570" width="170" height="120" as="geometry" />
        </mxCell>
        <mxCell id="vH6mKPwSYMzQLTSOM2UL-12" value="-Preguntas&lt;div&gt;&lt;br&gt;&lt;/div&gt;" style="text;html=1;align=center;verticalAlign=middle;resizable=0;points=[];autosize=1;strokeColor=none;fillColor=none;" vertex="1" parent="1">
          <mxGeometry x="450" y="505" width="80" height="40" as="geometry" />
        </mxCell>
        <mxCell id="vH6mKPwSYMzQLTSOM2UL-13" value="" style="endArrow=diamondThin;endFill=1;endSize=24;html=1;rounded=0;exitX=1;exitY=0.5;exitDx=0;exitDy=0;entryX=-0.009;entryY=0.384;entryDx=0;entryDy=0;entryPerimeter=0;" edge="1" parent="1" source="vH6mKPwSYMzQLTSOM2UL-5" target="vH6mKPwSYMzQLTSOM2UL-6">
          <mxGeometry width="160" relative="1" as="geometry">
            <mxPoint x="90" y="323" as="sourcePoint" />
            <mxPoint x="370" y="428" as="targetPoint" />
            <Array as="points" />
          </mxGeometry>
        </mxCell>
        <mxCell id="vH6mKPwSYMzQLTSOM2UL-14" value="1..*" style="text;html=1;align=center;verticalAlign=middle;resizable=0;points=[];autosize=1;strokeColor=none;fillColor=none;" vertex="1" parent="1">
          <mxGeometry x="260" y="398" width="40" height="30" as="geometry" />
        </mxCell>
        <mxCell id="vH6mKPwSYMzQLTSOM2UL-17" value="" style="endArrow=diamondThin;endFill=1;endSize=24;html=1;rounded=0;entryX=0.456;entryY=0;entryDx=0;entryDy=0;entryPerimeter=0;exitX=0.456;exitY=1.016;exitDx=0;exitDy=0;exitPerimeter=0;" edge="1" parent="1" source="vH6mKPwSYMzQLTSOM2UL-6" target="vH6mKPwSYMzQLTSOM2UL-10">
          <mxGeometry width="160" relative="1" as="geometry">
            <mxPoint x="440" y="490" as="sourcePoint" />
            <mxPoint x="490" y="540" as="targetPoint" />
            <Array as="points" />
          </mxGeometry>
        </mxCell>
        <mxCell id="vH6mKPwSYMzQLTSOM2UL-19" value="&lt;div&gt;1..*&lt;/div&gt;" style="text;html=1;align=center;verticalAlign=middle;resizable=0;points=[];autosize=1;strokeColor=none;fillColor=none;" vertex="1" parent="1">
          <mxGeometry x="410" y="505" width="40" height="30" as="geometry" />
        </mxCell>
        <mxCell id="vH6mKPwSYMzQLTSOM2UL-20" value="&lt;p style=&quot;margin:0px;margin-top:4px;text-align:center;&quot;&gt;&lt;b&gt;EncuestaLimitadaEdad&lt;/b&gt;&lt;/p&gt;&lt;hr size=&quot;1&quot; style=&quot;border-style:solid;&quot;&gt;&lt;p style=&quot;margin:0px;margin-left:4px;&quot;&gt;+edad_min: int&lt;/p&gt;&lt;p style=&quot;margin:0px;margin-left:4px;&quot;&gt;+edad_max: int&lt;/p&gt;&lt;hr size=&quot;1&quot; style=&quot;border-style:solid;&quot;&gt;&lt;p style=&quot;margin:0px;margin-left:4px;&quot;&gt;+agregar_respuesta():&amp;nbsp;&lt;/p&gt;" style="verticalAlign=top;align=left;overflow=fill;html=1;whiteSpace=wrap;" vertex="1" parent="1">
          <mxGeometry x="254" y="780" width="160" height="90" as="geometry" />
        </mxCell>
        <mxCell id="vH6mKPwSYMzQLTSOM2UL-21" value="&lt;p style=&quot;margin:0px;margin-top:4px;text-align:center;&quot;&gt;&lt;b&gt;EncuestaLimitaRegion&lt;/b&gt;&lt;/p&gt;&lt;hr size=&quot;1&quot; style=&quot;border-style:solid;&quot;&gt;&lt;p style=&quot;margin:0px;margin-left:4px;&quot;&gt;+regiones: list&lt;/p&gt;&lt;hr size=&quot;1&quot; style=&quot;border-style:solid;&quot;&gt;&lt;p style=&quot;margin:0px;margin-left:4px;&quot;&gt;+agregar_respuesta():&lt;br&gt;&lt;/p&gt;" style="verticalAlign=top;align=left;overflow=fill;html=1;whiteSpace=wrap;" vertex="1" parent="1">
          <mxGeometry x="490" y="785" width="160" height="80" as="geometry" />
        </mxCell>
        <mxCell id="vH6mKPwSYMzQLTSOM2UL-26" value="" style="endArrow=none;html=1;edgeStyle=orthogonalEdgeStyle;rounded=0;exitX=0.5;exitY=1;exitDx=0;exitDy=0;entryX=0.5;entryY=0;entryDx=0;entryDy=0;" edge="1" parent="1" source="vH6mKPwSYMzQLTSOM2UL-10" target="vH6mKPwSYMzQLTSOM2UL-20">
          <mxGeometry relative="1" as="geometry">
            <mxPoint x="330" y="700" as="sourcePoint" />
            <mxPoint x="350" y="750" as="targetPoint" />
            <Array as="points">
              <mxPoint x="455" y="720" />
              <mxPoint x="334" y="720" />
            </Array>
          </mxGeometry>
        </mxCell>
        <mxCell id="vH6mKPwSYMzQLTSOM2UL-29" value="" style="endArrow=none;html=1;edgeStyle=orthogonalEdgeStyle;rounded=0;exitX=0.5;exitY=1;exitDx=0;exitDy=0;entryX=0.445;entryY=-0.005;entryDx=0;entryDy=0;entryPerimeter=0;" edge="1" parent="1" source="vH6mKPwSYMzQLTSOM2UL-10" target="vH6mKPwSYMzQLTSOM2UL-21">
          <mxGeometry relative="1" as="geometry">
            <mxPoint x="330" y="640" as="sourcePoint" />
            <mxPoint x="570" y="780" as="targetPoint" />
            <Array as="points">
              <mxPoint x="455" y="720" />
              <mxPoint x="561" y="720" />
            </Array>
          </mxGeometry>
        </mxCell>
        <mxCell id="vH6mKPwSYMzQLTSOM2UL-37" value="&lt;p style=&quot;margin:0px;margin-top:4px;text-align:center;&quot;&gt;&lt;b&gt;Usuario&lt;/b&gt;&lt;/p&gt;&lt;hr size=&quot;1&quot; style=&quot;border-style:solid;&quot;&gt;&lt;p style=&quot;margin:0px;margin-left:4px;&quot;&gt;+ correo: str&lt;/p&gt;&lt;p style=&quot;margin:0px;margin-left:4px;&quot;&gt;+ edad: int&lt;/p&gt;&lt;p style=&quot;margin:0px;margin-left:4px;&quot;&gt;+ region: int&lt;/p&gt;&lt;hr size=&quot;1&quot; style=&quot;border-style:solid;&quot;&gt;&lt;p style=&quot;margin:0px;margin-left:4px;&quot;&gt;+contestar_encuesta():&amp;nbsp;&lt;/p&gt;" style="verticalAlign=top;align=left;overflow=fill;html=1;whiteSpace=wrap;" vertex="1" parent="1">
          <mxGeometry x="50" y="570" width="160" height="110" as="geometry" />
        </mxCell>
        <mxCell id="vH6mKPwSYMzQLTSOM2UL-38" value="&lt;p style=&quot;margin:0px;margin-top:4px;text-align:center;&quot;&gt;&lt;b&gt;ListadoRespuestas&lt;/b&gt;&lt;/p&gt;&lt;hr size=&quot;1&quot; style=&quot;border-style:solid;&quot;&gt;&lt;p style=&quot;margin:0px;margin-left:4px;&quot;&gt;+ respuesta: list&lt;/p&gt;&lt;p style=&quot;margin:0px;margin-left:4px;&quot;&gt;&lt;br&gt;&lt;/p&gt;" style="verticalAlign=top;align=left;overflow=fill;html=1;whiteSpace=wrap;" vertex="1" parent="1">
          <mxGeometry x="640" y="580" width="160" height="90" as="geometry" />
        </mxCell>
        <mxCell id="vH6mKPwSYMzQLTSOM2UL-39" value="Usa" style="endArrow=open;endSize=12;dashed=1;html=1;rounded=0;exitX=1;exitY=0.5;exitDx=0;exitDy=0;entryX=-0.019;entryY=0.435;entryDx=0;entryDy=0;entryPerimeter=0;" edge="1" parent="1" source="vH6mKPwSYMzQLTSOM2UL-37" target="vH6mKPwSYMzQLTSOM2UL-10">
          <mxGeometry width="160" relative="1" as="geometry">
            <mxPoint x="220" y="620" as="sourcePoint" />
            <mxPoint x="490" y="540" as="targetPoint" />
            <Array as="points" />
          </mxGeometry>
        </mxCell>
        <mxCell id="vH6mKPwSYMzQLTSOM2UL-40" value="" style="endArrow=diamondThin;endFill=1;endSize=24;html=1;rounded=0;entryX=0.998;entryY=0.428;entryDx=0;entryDy=0;entryPerimeter=0;exitX=0;exitY=0.5;exitDx=0;exitDy=0;" edge="1" parent="1" source="vH6mKPwSYMzQLTSOM2UL-38" target="vH6mKPwSYMzQLTSOM2UL-10">
          <mxGeometry width="160" relative="1" as="geometry">
            <mxPoint x="640" y="620" as="sourcePoint" />
            <mxPoint x="540" y="607.5" as="targetPoint" />
          </mxGeometry>
        </mxCell>
        <mxCell id="vH6mKPwSYMzQLTSOM2UL-42" value="listado_respuesta" style="text;html=1;align=center;verticalAlign=middle;resizable=0;points=[];autosize=1;strokeColor=none;fillColor=none;" vertex="1" parent="1">
          <mxGeometry x="530" y="585" width="120" height="30" as="geometry" />
        </mxCell>
        <mxCell id="vH6mKPwSYMzQLTSOM2UL-43" value="" style="endArrow=diamondThin;endFill=1;endSize=24;html=1;rounded=0;entryX=0.5;entryY=1;entryDx=0;entryDy=0;exitX=0.5;exitY=0.998;exitDx=0;exitDy=0;exitPerimeter=0;" edge="1" parent="1" source="vH6mKPwSYMzQLTSOM2UL-37" target="vH6mKPwSYMzQLTSOM2UL-38">
          <mxGeometry width="160" relative="1" as="geometry">
            <mxPoint x="130" y="680" as="sourcePoint" />
            <mxPoint x="730" y="960" as="targetPoint" />
            <Array as="points">
              <mxPoint x="130" y="960" />
              <mxPoint x="720" y="960" />
            </Array>
          </mxGeometry>
        </mxCell>
        <mxCell id="vH6mKPwSYMzQLTSOM2UL-45" value="&lt;font style=&quot;font-size: 24px;&quot;&gt;Diagrama de clases&lt;/font&gt;" style="text;html=1;align=center;verticalAlign=middle;resizable=0;points=[];autosize=1;strokeColor=none;fillColor=none;" vertex="1" parent="1">
          <mxGeometry x="115" y="235" width="240" height="40" as="geometry" />
        </mxCell>
      </root>
    </mxGraphModel>
  </diagram>
</mxfile>
